<svg width="14" height="16" viewBox="0 0 14 16" fill="none" xmlns="http://www.w3.org/2000/svg">
<path id="Arrow 2" d="M12.7487 9C13.3009 9 13.7487 8.55228 13.7487 8C13.7487 7.44772 13.3009 7 12.7487 7V9ZM0.292916 7.29289C-0.0976086 7.68342 -0.0976086 8.31658 0.292916 8.70711L6.65688 15.0711C7.0474 15.4616 7.68057 15.4616 8.07109 15.0711C8.46162 14.6805 8.46162 14.0474 8.07109 13.6569L2.41424 8L8.07109 2.34315C8.46162 1.95262 8.46162 1.31946 8.07109 0.928932C7.68057 0.538408 7.0474 0.538408 6.65688 0.928932L0.292916 7.29289ZM12.7487 7L1.00002 7V9L12.7487 9V7Z" fill="#424242"/>
</svg>
