<svg width="31" height="33" viewBox="0 0 31 33" fill="none" xmlns="http://www.w3.org/2000/svg">
<path d="M30.2859 3.04692C30.4128 2.36111 30.1412 1.6625 29.5846 1.24235C29.0279 0.822203 28.2816 0.752635 27.6568 1.06265L1.83952 13.8738C1.18542 14.1984 0.784925 14.8788 0.818647 15.6083C0.852368 16.3377 1.31394 16.9783 1.9952 17.2411L10.9283 20.6877C11.6953 20.9837 12.5656 20.7353 13.0608 20.0791L18.1317 13.3604C18.7443 12.5487 19.8989 12.3874 20.7106 13C21.5223 13.6126 21.6837 14.7672 21.0711 15.5789L16.0003 22.2976C15.505 22.9538 15.5047 23.8588 15.9996 24.5152L21.7635 32.161C22.2031 32.7441 22.9457 33.0124 23.6564 32.8448C24.3671 32.6772 24.9117 32.1055 25.0445 31.3875L30.2859 3.04692Z" fill="#9D9D9D"/>
</svg>
