<svg width="7" height="7" viewBox="0 0 7 7" fill="none" xmlns="http://www.w3.org/2000/svg">
<path id="Vector (Stroke)" fill-rule="evenodd" clip-rule="evenodd" d="M3.5 0C3.71478 0 3.88889 0.174111 3.88889 0.388889V3.11111L6.61111 3.11111C6.82589 3.11111 7 3.28522 7 3.5C7 3.71478 6.82589 3.88889 6.61111 3.88889H3.88889V6.61111C3.88889 6.82589 3.71478 7 3.5 7C3.28522 7 3.11111 6.82589 3.11111 6.61111V3.88889H0.388889C0.174111 3.88889 0 3.71478 0 3.5C2.31796e-08 3.28522 0.174112 3.11111 0.388889 3.11111L3.11111 3.11111V0.388889C3.11111 0.174111 3.28522 0 3.5 0Z" fill="#222222"/>
</svg>
